<?xml version="1.0" encoding="iso-8859-1"?>
<!-- Generator: Adobe Illustrator 19.0.0, SVG Export Plug-In . SVG Version: 6.00 Build 0)  -->
<svg version="1.1" id="Layer_1" xmlns="http://www.w3.org/2000/svg" xmlns:xlink="http://www.w3.org/1999/xlink" x="0px" y="0px"
	 viewBox="0 0 512 512" style="enable-background:new 0 0 512 512;" xml:space="preserve">
<path style="fill:#692811;" d="M505.395,197.983C479.111,84.546,377.43,0,256,0C114.615,0,0,114.615,0,256
	c0,131.828,99.649,240.365,227.728,254.438L505.395,197.983z"/>
<path style="fill:#3A160A;" d="M512,256c0-19.955-2.285-39.376-6.605-58.017l-70.088-70.088l-70.683,53.781l-97.503-97.503
	L100.174,382.885l127.554,127.554C237.013,511.459,246.442,512,256,512C397.384,512,512,397.384,512,256z"/>
<rect x="244.858" y="84.168" style="fill:#934D2B;" width="22.261" height="46.058"/>
<path style="fill:#F8513A;" d="M336.139,86.817c-29.806,0-57.419,9.326-80.139,25.18l-80.139,115.063L256,478.609l33.733-33.733
	c105.701-16.236,186.65-107.571,186.65-217.815C476.383,149.606,413.594,86.817,336.139,86.817z"/>
<path style="fill:#FA7461;" d="M175.861,86.817c-77.454,0-140.243,62.789-140.243,140.243c0,110.244,80.948,201.579,186.65,217.815
	L256,478.609V111.998C233.279,96.144,205.667,86.817,175.861,86.817z"/>
<path style="fill:#FFD23E;" d="M336.139,109.078c-24.242,0-47.549,7.323-67.4,21.175L256,139.143l-33.391,143.021L256,425.183
	c109.244,0,198.122-88.878,198.122-198.122C454.122,162.005,401.194,109.078,336.139,109.078z"/>
<circle style="fill:#FDA409;" cx="233.739" cy="267.13" r="105.739"/>
<circle style="fill:#813115;" cx="233.739" cy="267.13" r="83.478"/>
<path style="fill:#F8513A;" d="M243.261,130.253c-19.851-13.852-43.158-21.175-67.4-21.175
	c-65.055,0-117.983,52.926-117.983,117.983c0,109.244,88.878,198.122,198.122,198.122v-286.04L243.261,130.253z"/>
<g>
	<rect x="141.646" y="192.846" style="fill:#FA7461;" width="22.261" height="22.261"/>
	<rect x="108.255" y="159.455" style="fill:#FA7461;" width="22.261" height="22.261"/>
</g>
<g>
</g>
<g>
</g>
<g>
</g>
<g>
</g>
<g>
</g>
<g>
</g>
<g>
</g>
<g>
</g>
<g>
</g>
<g>
</g>
<g>
</g>
<g>
</g>
<g>
</g>
<g>
</g>
<g>
</g>
</svg>
